<?xml version="1.0" encoding="utf-8"?>
<!-- Generator: Adobe Illustrator 26.0.3, SVG Export Plug-In . SVG Version: 6.00 Build 0)  -->
<svg version="1.1" id="katman_1" xmlns="http://www.w3.org/2000/svg" xmlns:xlink="http://www.w3.org/1999/xlink" x="0px" y="0px"
	 viewBox="0 0 2052 388" style="enable-background:new 0 0 2052 388;" xml:space="preserve">
<style type="text/css">
	.st0{fill:#253241;}
</style>
<g>
	<path class="st0" d="M160.5,85.7c-15.5-10.2-34.2-15.3-56.2-15.3c-21.1,0-39.5,4.7-55.4,14.2s-28.2,22.9-37.1,40.2
		s-13.3,37.8-13.3,61.4c0,22.3,4.5,41.8,13.5,58.7s21.6,30,37.8,39.4c16.2,9.4,35,14.1,56.5,14.1c20.9,0,39.9-5.3,57-15.9
		s29.8-25.6,38.2-44.9l-41-13c-5.3,11.1-12.8,19.6-22.3,25.5s-20.8,8.9-33.9,8.9c-19.9,0-35.1-6.5-45.6-19.5
		c-8.7-10.8-13.8-25.2-15.3-43.3h119.1h21h20.8c1.6-25.9-1.4-48.2-9.1-67C187.5,110.4,175.9,95.9,160.5,85.7z M58.7,127.2
		c10.5-13.2,26.3-19.8,47.2-19.8c18.9,0,33,6,42.3,18c7,9,11.4,21.8,13.3,38.2H44.3C46.5,148.6,51.3,136.4,58.7,127.2z"/>
	<path class="st0" d="M375.3,95.8c-3.7-3.8-7.7-7.4-12.1-10.5c-13.9-9.9-31.1-14.9-51.5-14.9c-20.3,0-37.8,5-52.5,14.9
		c-14.7,9.9-26.1,23.5-34.1,40.6s-12,36.6-12,58.3c0,21.6,4,41,11.9,58.3s19.2,30.9,33.8,40.9c14.6,10,32,15,52.1,15
		c20.7,0,38-5,52-15.1c2.7-1.9,5.2-4,7.6-6.2v111.3h42v-312h-37.2L375.3,95.8L375.3,95.8z M350.3,250.8c-8.7,6.5-19.9,9.8-33.6,9.8
		c-13.3,0-24.4-3.4-33.1-10.2s-15.3-16-19.6-27.5c-4.3-11.5-6.5-24.4-6.5-38.7c0-14.1,2.2-26.9,6.5-38.4s11-20.6,19.9-27.4
		s20.3-10.2,34.2-10.2c13.1,0,23.8,3.2,32.3,9.6s14.7,15.3,18.8,26.8c4.1,11.5,6.1,24.7,6.1,39.6s-2,28.1-6,39.6
		C365.3,235.3,358.9,244.3,350.3,250.8z"/>
	<path class="st0" d="M580.3,188.8c0,12.8-1.4,23.7-4.3,32.6c-2.9,8.9-6.8,16.1-11.8,21.6s-10.8,9.4-17.5,11.9s-13.7,3.7-21.2,3.7
		c-11.5,0-20.8-2.3-27.9-7c-7.1-4.7-12.7-10.8-16.6-18.4c-3.9-7.6-6.6-15.8-8-24.7s-2.1-17.5-2.1-25.9V76.4h-42.4v120
		c0,6.7,0.6,14.4,1.8,23.2c1.2,8.8,3.5,17.8,6.8,27s8.2,17.7,14.5,25.5s14.6,14.1,24.7,18.9s22.7,7.2,37.6,7.2
		c19.5,0,36.1-4.2,49.8-12.6c8.4-5.1,15.6-11.5,21.6-19.1v25.9h37.2v-216h-42.2L580.3,188.8L580.3,188.8z"/>
	<rect x="640.5" y="0.4" class="st0" width="41.8" height="40.6"/>
	<rect x="640.5" y="76.4" class="st0" width="41.8" height="216"/>
	<path class="st0" d="M885.7,122.2c-3.3-9.2-8.2-17.7-14.5-25.5s-14.6-14.1-24.7-18.9c-10.1-4.8-22.7-7.2-37.6-7.2
		c-19.5,0-36.1,4.2-49.8,12.6c-8.4,5.1-15.6,11.5-21.6,19.1V76.4h-37.4v216h42.4V180c0-12.8,1.4-23.7,4.3-32.6
		c2.9-8.9,6.8-16.1,11.8-21.6c5-5.5,10.8-9.4,17.5-11.9s13.7-3.7,21.2-3.7c11.5,0,20.8,2.3,27.9,7c7.1,4.7,12.7,10.8,16.6,18.4
		c3.9,7.6,6.6,15.8,8,24.7s2.1,17.5,2.1,25.9v106.2h42.4v-120c0-6.7-0.6-14.4-1.8-23.2C891.3,140.4,889,131.4,885.7,122.2z"/>
	<path class="st0" d="M1123.5,184.2c0-22.3-4.3-41.9-13-59s-20.9-30.5-36.8-40.2s-34.6-14.6-56.2-14.6c-21.2,0-39.7,4.8-55.6,14.3
		c-15.9,9.5-28.2,22.9-37,40s-13.2,37-13.2,59.5c0,22.4,4.3,42.2,12.9,59.3c8.6,17.1,20.8,30.6,36.7,40.3s34.6,14.6,56.2,14.6
		c21.5,0,40.1-4.8,56-14.5s28.2-23.1,36.9-40.2C1119.2,226.6,1123.5,206.7,1123.5,184.2z M1063.8,238.1
		c-10.2,13.9-25.6,20.9-46.3,20.9c-20.1,0-35.4-6.8-45.8-20.4c-10.4-13.6-15.6-31.7-15.6-54.4c0-14.7,2.2-27.6,6.6-38.7
		c4.4-11.1,11.1-19.9,20.2-26.2c9.1-6.3,20.6-9.5,34.6-9.5c20.4,0,35.8,6.8,46.1,20.3s15.5,31.6,15.5,54.1
		C1079.1,206.2,1074,224.2,1063.8,238.1z"/>
	<polygon class="st0" points="1437.6,75.9 1411.6,75.9 1390.5,75.9 1364.5,75.9 1285.7,182.6 1366.8,291.9 1392.8,291.9 
		1413.6,291.9 1439.6,291.9 1358.5,182.7 	"/>
	<polygon class="st0" points="1228.2,248.4 1259.7,292.4 1301.7,292.4 1309.5,292.4 1345.4,292.4 1269.6,196.3 	"/>
	<polygon class="st0" points="1343.7,76.4 1307.5,76.4 1299.9,76.4 1257.9,76.4 1228.1,118 1269.6,170 	"/>
	<polygon class="st0" points="1173,76.4 1150.9,76.4 1143.3,76.4 1101.3,76.4 1180.3,183.2 1099.5,292.4 1141.5,292.4 1149.3,292.4 
		1170.9,292.4 1259,183.1 	"/>
	<path class="st0" d="M1576.6,85c-15.9-9.7-34.6-14.6-56.2-14.6c-21.2,0-39.7,4.8-55.6,14.3s-28.2,22.9-37,40s-13.2,37-13.2,59.5
		c0,22.4,4.3,42.2,12.9,59.3s20.8,30.6,36.7,40.3c15.9,9.7,34.6,14.6,56.2,14.6c21.5,0,40.1-4.8,56-14.5s28.2-23.1,36.9-40.2
		c8.7-17.1,13.1-37,13.1-59.5c0-22.3-4.3-41.9-13-59C1604.7,108.1,1592.4,94.7,1576.6,85z M1566.7,238.1
		c-10.2,13.9-25.6,20.9-46.3,20.9c-20.1,0-35.4-6.8-45.8-20.4c-10.4-13.6-15.6-31.7-15.6-54.4c0-14.7,2.2-27.6,6.6-38.7
		c4.4-11.1,11.1-19.9,20.2-26.2c9.1-6.3,20.6-9.5,34.6-9.5c20.4,0,35.8,6.8,46.1,20.3c10.3,13.5,15.5,31.6,15.5,54.1
		C1582,206.2,1576.9,224.2,1566.7,238.1z"/>
	<path class="st0" d="M1791.8,91.2c-2.3-2.1-4.7-4.1-7.3-5.9c-13.9-9.9-31.1-14.9-51.5-14.9c-20.3,0-37.8,5-52.5,14.9
		s-26.1,23.5-34.1,40.6s-12,36.6-12,58.3c0,21.6,4,41,11.9,58.3s19.2,30.9,33.8,40.9c14.6,10,32,15,52.1,15c20.7,0,38-5,52-15.1
		c4.5-3.2,8.6-6.9,12.4-10.8v19.9h37.2V4.4h-42V91.2z M1790.6,223.8c-4,11.5-10.3,20.5-19,27c-8.7,6.5-19.9,9.8-33.6,9.8
		c-13.3,0-24.4-3.4-33.1-10.2s-15.3-16-19.6-27.5c-4.3-11.5-6.5-24.4-6.5-38.7c0-14.1,2.2-26.9,6.5-38.4s11-20.6,19.9-27.4
		s20.3-10.2,34.2-10.2c13.1,0,23.8,3.2,32.3,9.6s14.7,15.3,18.8,26.8c4.1,11.5,6.1,24.7,6.1,39.6
		C1796.6,199.1,1794.6,212.3,1790.6,223.8z"/>
	<path class="st0" d="M2030.8,196.2h20.8c1.6-25.9-1.4-48.2-9.1-67c-7.7-18.8-19.2-33.3-34.7-43.5s-34.2-15.3-56.2-15.3
		c-21.1,0-39.5,4.7-55.4,14.2s-28.2,22.9-37.1,40.2s-13.3,37.8-13.3,61.4c0,22.3,4.5,41.8,13.5,58.7s21.6,30,37.8,39.4
		c16.2,9.4,35,14.1,56.5,14.1c20.9,0,39.9-5.3,57-15.9s29.8-25.6,38.2-44.9l-41-13c-5.3,11.1-12.8,19.6-22.3,25.5
		s-20.8,8.9-33.9,8.9c-19.9,0-35.1-6.5-45.6-19.5c-8.7-10.8-13.8-25.2-15.3-43.3h119.1H2030.8z M1906,127.2
		c10.5-13.2,26.3-19.8,47.2-19.8c18.9,0,33,6,42.3,18c7,9,11.4,21.8,13.3,38.2h-117.2C1893.8,148.6,1898.6,136.4,1906,127.2z"/>
</g>
</svg>
