<?xml version="1.0" encoding="utf-8"?>
<!-- Generator: Adobe Illustrator 26.0.3, SVG Export Plug-In . SVG Version: 6.00 Build 0)  -->
<svg version="1.1" id="katman_1" xmlns="http://www.w3.org/2000/svg" xmlns:xlink="http://www.w3.org/1999/xlink" x="0px" y="0px"
	 viewBox="0 0 710 452" style="enable-background:new 0 0 710 452;" xml:space="preserve">
<style type="text/css">
	.st0{fill:#CDCDCD;}
</style>
<g>
	<polygon class="st0" points="541.1,223.1 706.1,0 651.8,0 607.9,0 553.6,0 388.8,222.8 558.3,451.3 612.6,451.3 656,451.3 
		710.3,451.3 	"/>
	<polygon class="st0" points="268.7,360.4 334.7,452.2 422.4,452.2 438.7,452.2 513.7,452.2 355.2,251.4 	"/>
	<polygon class="st0" points="510.1,1 434.5,1 418.7,1 330.9,1 268.6,87.8 355.2,196.5 	"/>
	<polygon class="st0" points="153.5,1 107.4,1 91.5,1 3.7,1 168.8,224.1 0,452.2 87.7,452.2 104,452.2 149,452.2 333,224 	"/>
</g>
</svg>
